<svg width="100" height="100" viewBox="0 0 100 100" fill="none" xmlns="http://www.w3.org/2000/svg">
<circle cx="50" cy="50" r="50" fill="#00BD13" fill-opacity="0.5"/>
<path d="M62.7188 28.5C57.8789 28.5 53.6414 30.5812 51 34.0992C48.3586 30.5812 44.1211 28.5 39.2812 28.5C35.4287 28.5043 31.7351 30.0367 29.0109 32.7609C26.2867 35.4851 24.7543 39.1787 24.75 43.0312C24.75 59.4375 49.0758 72.7172 50.1117 73.2656C50.3848 73.4125 50.69 73.4894 51 73.4894C51.31 73.4894 51.6152 73.4125 51.8883 73.2656C52.9242 72.7172 77.25 59.4375 77.25 43.0312C77.2457 39.1787 75.7133 35.4851 72.9891 32.7609C70.2649 30.0367 66.5713 28.5043 62.7188 28.5ZM51 69.4688C46.7203 66.975 28.5 55.6148 28.5 43.0312C28.5037 40.173 29.6408 37.4329 31.6619 35.4119C33.6829 33.3908 36.423 32.2537 39.2812 32.25C43.8398 32.25 47.6672 34.6781 49.2656 38.5781C49.4069 38.922 49.6472 39.2162 49.956 39.4232C50.2648 39.6302 50.6282 39.7407 51 39.7407C51.3718 39.7407 51.7352 39.6302 52.044 39.4232C52.3528 39.2162 52.5931 38.922 52.7344 38.5781C54.3328 34.6711 58.1602 32.25 62.7188 32.25C65.577 32.2537 68.3171 33.3908 70.3381 35.4119C72.3592 37.4329 73.4963 40.173 73.5 43.0312C73.5 55.5961 55.275 66.9727 51 69.4688Z" fill="white"/>
</svg>
