<svg width="100" height="100" viewBox="0 0 100 100" fill="none" xmlns="http://www.w3.org/2000/svg">
<circle cx="50" cy="50" r="50" fill="#FFC93E" fill-opacity="0.7"/>
<path d="M77.8011 65.1676C79.295 62.131 80.0396 58.7807 79.9726 55.3972C79.9055 52.0136 79.0288 48.6954 77.4158 45.7204C75.8028 42.7453 73.5004 40.2001 70.7016 38.2977C67.9027 36.3953 64.6888 35.1912 61.3289 34.7863C60.2101 32.195 58.5848 29.8535 56.5484 27.8992C54.5119 25.9449 52.1055 24.4173 49.4704 23.4061C46.8353 22.3949 44.0247 21.9206 41.2037 22.0108C38.3827 22.1011 35.6082 22.7543 33.0432 23.9319C30.4781 25.1095 28.1743 26.7879 26.267 28.8684C24.3597 30.9488 22.8874 33.3895 21.9366 36.047C20.9859 38.7045 20.5757 41.5252 20.7304 44.3434C20.885 47.1616 21.6013 49.9205 22.8372 52.458L20.8089 59.5595C20.6512 60.111 20.6236 60.6916 20.7283 61.2556C20.833 61.8196 21.0672 62.3516 21.4124 62.8097C21.7576 63.2679 22.2044 63.6396 22.7177 63.8958C23.2309 64.1519 23.7967 64.2855 24.3703 64.2859C24.7143 64.2869 25.0567 64.2387 25.3871 64.1429L32.4886 62.1147C34.6307 63.1736 36.9387 63.8569 39.3121 64.135C40.4419 66.7813 42.0991 69.1697 44.1826 71.1545C46.266 73.1392 48.7319 74.6787 51.4299 75.6789C54.1279 76.6792 57.0014 77.1193 59.8752 76.9724C62.7489 76.8254 65.5625 76.0945 68.1444 74.8243L75.246 76.8526C75.8813 77.0335 76.5534 77.0415 77.1928 76.8755C77.8322 76.7096 78.4157 76.3758 78.8828 75.9086C79.3499 75.4415 79.6837 74.8581 79.8497 74.2187C80.0156 73.5793 80.0077 72.9071 79.8267 72.2718L77.8011 65.1676ZM33.7331 57.9867C33.2473 57.7214 32.6771 57.6568 32.1444 57.8066L25.1514 59.8057L27.1505 52.8128C27.3003 52.28 27.2357 51.7098 26.9705 51.2241C24.7851 47.2964 24.2494 42.6614 25.4814 38.3388C26.7134 34.0162 29.6121 30.36 33.5398 28.1746C37.4675 25.9892 42.1024 25.4536 46.4251 26.6855C50.7477 27.9175 54.4038 30.8162 56.5892 34.7439C51.3836 35.2953 46.5657 37.752 43.062 41.6413C39.5583 45.5306 37.6163 50.578 37.6095 55.8128C37.6104 57.0828 37.7265 58.3502 37.9564 59.5992C36.4823 59.2548 35.0616 58.7123 33.7331 57.9867ZM73.4957 65.5224L75.4949 72.5154L68.5019 70.5163C67.9691 70.3664 67.3989 70.4311 66.9132 70.6963C63.3374 72.644 59.1794 73.238 55.2013 72.3693C51.2231 71.5007 47.6912 69.2276 45.2528 65.9666C42.8143 62.7057 41.6325 58.6752 41.9241 54.6138C42.2156 50.5524 43.9609 46.732 46.8402 43.8528C49.7194 40.9735 53.5398 39.2282 57.6012 38.9367C61.6626 38.6451 65.6931 39.8269 68.9541 42.2654C72.215 44.7038 74.4881 48.2357 75.3567 52.2139C76.2254 56.192 75.6314 60.35 73.6837 63.9258C73.4137 64.4126 73.3461 64.9862 73.4957 65.5224ZM54.5557 52.6354C54.5557 53.2638 54.3694 53.8781 54.0202 54.4007C53.6711 54.9232 53.1748 55.3304 52.5942 55.5709C52.0136 55.8114 51.3748 55.8743 50.7584 55.7517C50.1421 55.6291 49.5759 55.3265 49.1315 54.8821C48.6872 54.4378 48.3845 53.8716 48.2619 53.2553C48.1393 52.6389 48.2023 52 48.4427 51.4194C48.6832 50.8388 49.0905 50.3426 49.613 49.9935C50.1355 49.6443 50.7499 49.458 51.3783 49.458C52.221 49.458 53.0292 49.7927 53.6251 50.3886C54.2209 50.9845 54.5557 51.7927 54.5557 52.6354ZM69.3836 52.6354C69.3836 53.2638 69.1973 53.8781 68.8481 54.4007C68.499 54.9232 68.0028 55.3304 67.4222 55.5709C66.8416 55.8114 66.2027 55.8743 65.5863 55.7517C64.97 55.6291 64.4038 55.3265 63.9594 54.8821C63.5151 54.4378 63.2125 53.8716 63.0899 53.2553C62.9673 52.6389 63.0302 52 63.2707 51.4194C63.5112 50.8388 63.9184 50.3426 64.4409 49.9935C64.9635 49.6443 65.5778 49.458 66.2062 49.458C67.0489 49.458 67.8571 49.7927 68.453 50.3886C69.0489 50.9845 69.3836 51.7927 69.3836 52.6354Z" fill="white"/>
</svg>
