<svg width="1426" height="204" viewBox="0 0 1426 204" fill="none" xmlns="http://www.w3.org/2000/svg">
<path d="M88.5 50.499L88.0805 51.4068L88.5 50.499ZM390 200.499L390.108 199.505L390 200.499ZM1383 123.996L1382.43 123.171L1383 123.996ZM1418.5 55.4975L1410.63 63.9504L1421.89 66.5366L1418.5 55.4975ZM1059.5 4.00006L1059.59 3.00448L1059.5 4.00006ZM719 101.997L718.524 101.118L718.506 101.128L718.488 101.139L719 101.997ZM-1 101.997C-0.152723 102.528 -0.152743 102.528 -0.152759 102.528C-0.152757 102.528 -0.152767 102.528 -0.152763 102.528C-0.152755 102.528 -0.152727 102.528 -0.152677 102.528C-0.152577 102.528 -0.152393 102.528 -0.152125 102.527C-0.151589 102.527 -0.150716 102.525 -0.149507 102.523C-0.147089 102.519 -0.143327 102.513 -0.13823 102.505C-0.128036 102.489 -0.112499 102.465 -0.0916784 102.432C-0.0500374 102.366 0.0127335 102.268 0.0961521 102.139C0.262992 101.88 0.512408 101.498 0.840542 101.005C1.49684 100.019 2.46786 98.5914 3.72274 96.8337L2.09498 95.6716C0.826231 97.4488 -0.157183 98.894 -0.824405 99.8965C-1.15803 100.398 -1.41265 100.788 -1.5844 101.055C-1.67028 101.188 -1.73545 101.29 -1.77942 101.359C-1.80141 101.393 -1.81809 101.42 -1.82942 101.438C-1.83509 101.447 -1.83941 101.454 -1.84239 101.458C-1.84388 101.461 -1.84503 101.463 -1.84585 101.464C-1.84626 101.464 -1.84658 101.465 -1.84682 101.465C-1.84694 101.466 -1.84703 101.466 -1.84711 101.466C-1.84715 101.466 -1.84719 101.466 -1.84721 101.466C-1.84725 101.466 -1.84728 101.466 -1 101.997ZM12.2183 85.8024C14.9468 82.509 18.0602 78.9739 21.4921 75.4331L20.056 74.0412C16.5824 77.6249 13.4344 81.1996 10.6782 84.5264L12.2183 85.8024ZM31.6055 65.9288C35.1212 62.9478 38.8359 60.1364 42.7031 57.6579L41.6239 55.9741C37.6695 58.5085 33.8834 61.3752 30.3121 64.4033L31.6055 65.9288ZM54.9165 51.3046C59.2433 49.5934 63.6755 48.4345 68.162 48.0077L67.9726 46.0167C63.2699 46.464 58.6536 47.6759 54.181 49.4447L54.9165 51.3046ZM81.6613 49.0826C83.7969 49.6489 85.9383 50.4168 88.0805 51.4068L88.9195 49.5913C86.6735 48.5533 84.423 47.7458 82.1739 47.1494L81.6613 49.0826ZM88.0805 51.4068C89.9828 52.2859 91.9278 53.2291 93.9146 54.2325L94.8161 52.4472C92.8109 51.4345 90.8449 50.4811 88.9195 49.5913L88.0805 51.4068ZM105.347 60.3841C108.983 62.4461 112.732 64.6597 116.59 67.0048L117.629 65.2959C113.757 62.9422 109.99 60.7181 106.333 58.6443L105.347 60.3841ZM127.661 73.8941C131.247 76.1701 134.914 78.534 138.656 80.9716L139.748 79.2958C136 76.8549 132.327 74.4867 128.733 72.2055L127.661 73.8941ZM149.554 88.1254C153.125 90.4844 156.758 92.8941 160.449 95.3439L161.555 93.6776C157.864 91.2277 154.229 88.8169 150.656 86.4566L149.554 88.1254ZM171.355 102.577C174.94 104.951 178.575 107.351 182.256 109.767L183.354 108.095C179.675 105.681 176.043 103.283 172.459 100.91L171.355 102.577ZM193.199 116.904C196.827 119.252 200.496 121.607 204.205 123.962L205.277 122.273C201.574 119.922 197.91 117.57 194.286 115.225L193.199 116.904ZM215.283 130.914C218.97 133.199 222.691 135.475 226.446 137.735L227.478 136.022C223.731 133.766 220.017 131.495 216.337 129.214L215.283 130.914ZM237.705 144.4C241.464 146.586 245.253 148.748 249.069 150.881L250.045 149.135C246.239 147.008 242.46 144.851 238.711 142.671L237.705 144.4ZM260.551 157.153C264.396 159.204 268.267 161.218 272.162 163.188L273.065 161.404C269.183 159.44 265.325 157.433 261.492 155.388L260.551 157.153ZM283.912 168.957C287.856 170.833 291.822 172.658 295.809 174.424L296.619 172.596C292.65 170.837 288.7 169.02 284.771 167.151L283.912 168.957ZM307.857 179.553C311.907 181.206 315.976 182.791 320.061 184.304L320.756 182.428C316.691 180.924 312.643 179.346 308.612 177.702L307.857 179.553ZM332.424 188.631C336.583 190.001 340.757 191.289 344.944 192.487L345.494 190.564C341.333 189.374 337.185 188.094 333.05 186.731L332.424 188.631ZM357.623 195.822C361.885 196.842 366.159 197.763 370.443 198.576L370.816 196.611C366.565 195.805 362.322 194.89 358.089 193.877L357.623 195.822ZM383.386 200.693C385.553 200.99 387.721 201.257 389.892 201.493L390.108 199.505C387.957 199.27 385.806 199.006 383.657 198.712L383.386 200.693ZM389.892 201.493C392.102 201.734 394.326 201.943 396.561 202.12L396.719 200.126C394.503 199.951 392.299 199.744 390.108 199.505L389.892 201.493ZM409.992 202.806C414.438 202.914 418.922 202.909 423.436 202.798L423.387 200.799C418.903 200.909 414.452 200.914 410.041 200.807L409.992 202.806ZM436.861 202.17C441.302 201.866 445.765 201.47 450.244 200.987L450.03 198.999C445.575 199.479 441.138 199.873 436.724 200.174L436.861 202.17ZM463.572 199.308C467.985 198.674 472.408 197.963 476.833 197.182L476.485 195.213C472.08 195.99 467.679 196.698 463.287 197.328L463.572 199.308ZM490.02 194.654C494.395 193.749 498.766 192.783 503.129 191.759L502.672 189.812C498.326 190.832 493.972 191.795 489.615 192.695L490.02 194.654ZM516.156 188.531C520.488 187.403 524.804 186.223 529.1 184.999L528.552 183.076C524.27 184.296 519.968 185.471 515.652 186.596L516.156 188.531ZM541.959 181.187C546.25 179.867 550.512 178.508 554.741 177.115L554.116 175.215C549.899 176.604 545.648 177.96 541.371 179.276L541.959 181.187ZM567.445 172.801C571.697 171.314 575.908 169.798 580.07 168.262L579.377 166.385C575.225 167.918 571.026 169.43 566.785 170.913L567.445 172.801ZM592.615 163.512C596.833 161.876 600.99 160.224 605.081 158.563L604.329 156.71C600.247 158.367 596.099 160.015 591.892 161.647L592.615 163.512ZM617.466 153.428C621.654 151.656 625.757 149.883 629.767 148.117L628.961 146.287C624.959 148.048 620.865 149.818 616.686 151.587L617.466 153.428ZM642.003 142.629C646.195 140.714 650.263 138.82 654.195 136.958L653.339 135.151C649.415 137.008 645.356 138.899 641.172 140.81L642.003 142.629ZM666.301 131.128C670.496 129.073 674.492 127.078 678.271 125.163L677.367 123.379C673.595 125.29 669.607 127.281 665.421 129.332L666.301 131.128ZM690.23 118.999C694.606 116.704 698.555 114.588 702.034 112.696L701.078 110.939C697.608 112.826 693.668 114.937 689.301 117.227L690.23 118.999ZM713.791 106.166C715.652 105.107 717.081 104.281 718.046 103.718C718.528 103.437 718.894 103.222 719.14 103.077C719.263 103.004 719.355 102.949 719.418 102.912C719.449 102.894 719.472 102.88 719.488 102.87C719.496 102.866 719.502 102.862 719.506 102.86C719.508 102.859 719.51 102.858 719.511 102.857C719.511 102.857 719.512 102.856 719.512 102.856C719.512 102.856 719.512 102.856 719.512 102.856C719.512 102.856 719.512 102.856 719.512 102.856C719.512 102.856 719.512 102.856 719 101.997C718.488 101.139 718.488 101.139 718.488 101.139C718.488 101.139 718.488 101.139 718.488 101.139C718.487 101.139 718.487 101.139 718.487 101.139C718.487 101.139 718.487 101.139 718.486 101.139C718.485 101.14 718.484 101.141 718.482 101.142C718.479 101.144 718.473 101.147 718.465 101.152C718.45 101.161 718.427 101.174 718.397 101.192C718.336 101.228 718.245 101.283 718.123 101.354C717.88 101.498 717.517 101.711 717.038 101.991C716.08 102.549 714.657 103.372 712.802 104.427L713.791 106.166ZM719 101.997C719.476 102.877 719.476 102.877 719.476 102.877C719.476 102.877 719.476 102.877 719.476 102.877C719.476 102.877 719.476 102.877 719.476 102.877C719.476 102.877 719.476 102.877 719.477 102.876C719.478 102.876 719.479 102.875 719.481 102.874C719.484 102.872 719.49 102.869 719.497 102.865C719.512 102.857 719.535 102.845 719.565 102.829C719.625 102.797 719.715 102.748 719.834 102.684C720.073 102.556 720.431 102.366 720.902 102.116C721.844 101.616 723.243 100.88 725.067 99.9345L724.146 98.159C722.317 99.1076 720.913 99.8466 719.965 100.349C719.492 100.6 719.132 100.792 718.89 100.921C718.77 100.986 718.678 101.035 718.617 101.068C718.587 101.084 718.564 101.096 718.548 101.105C718.54 101.109 718.535 101.112 718.531 101.114C718.529 101.115 718.527 101.116 718.526 101.117C718.526 101.117 718.525 101.117 718.525 101.117C718.525 101.117 718.525 101.117 718.525 101.117C718.525 101.117 718.525 101.118 718.525 101.118C718.524 101.118 718.524 101.118 719 101.997ZM736.404 94.1705C739.792 92.4778 743.643 90.5792 747.911 88.5118L747.039 86.7118C742.763 88.7829 738.906 90.6851 735.51 92.3813L736.404 94.1705ZM759.451 83.0024C763.135 81.2683 767.032 79.4575 771.123 77.5855L770.291 75.7668C766.193 77.6419 762.29 79.4558 758.599 81.1928L759.451 83.0024ZM782.736 72.346C786.511 70.6671 790.414 68.9539 794.436 67.2161L793.642 65.3802C789.614 67.1209 785.704 68.837 781.924 70.5186L782.736 72.346ZM806.201 62.2071C810.056 60.5905 814 58.961 818.025 57.3258L817.272 55.4729C813.24 57.111 809.289 58.7433 805.427 60.3627L806.201 62.2071ZM829.905 52.5778C833.822 51.0384 837.803 49.5002 841.841 47.969L841.132 46.099C837.086 47.6331 833.098 49.1742 829.173 50.7164L829.905 52.5778ZM853.833 43.5065C857.805 42.0568 861.823 40.619 865.881 39.1984L865.22 37.3107C861.154 38.7344 857.128 40.1751 853.147 41.6277L853.833 43.5065ZM877.976 35.0573C881.994 33.7128 886.045 32.3895 890.121 31.0922L889.515 29.1864C885.428 30.4868 881.369 31.8132 877.341 33.1606L877.976 35.0573ZM902.33 27.3109C906.403 26.0851 910.495 24.8893 914.602 23.7281L914.058 21.8036C909.94 22.9679 905.837 24.1668 901.754 25.3958L902.33 27.3109ZM926.935 20.3605C931.059 19.2752 935.191 18.2291 939.327 17.2269L938.856 15.2832C934.707 16.2885 930.562 17.3378 926.426 18.4264L926.935 20.3605ZM951.775 14.3489C955.946 13.432 960.115 12.5644 964.276 11.7509L963.893 9.78804C959.715 10.6046 955.531 11.4754 951.345 12.3955L951.775 14.3489ZM976.842 9.45875C981.068 8.74488 985.279 8.09232 989.47 7.50609L989.193 5.52537C984.982 6.11434 980.752 6.76982 976.509 7.4867L976.842 9.45875ZM1002.15 5.93332C1006.42 5.47342 1010.66 5.08928 1014.86 4.78638L1014.72 2.79154C1010.49 3.09623 1006.22 3.48252 1001.93 3.94483L1002.15 5.93332ZM1027.61 4.11934C1031.91 3.98229 1036.16 3.93918 1040.36 3.99614L1040.39 1.99632C1036.15 1.93893 1031.87 1.98239 1027.54 2.12036L1027.61 4.11934ZM1053.1 4.49221C1055.22 4.6312 1057.32 4.79872 1059.41 4.99563L1059.59 3.00448C1057.49 2.80573 1055.37 2.6367 1053.23 2.4965L1053.1 4.49221ZM1059.41 4.99563C1061.57 5.19954 1063.71 5.45043 1065.85 5.74635L1066.13 3.76527C1063.96 3.46542 1061.78 3.21116 1059.59 3.00448L1059.41 4.99563ZM1078.58 8.05824C1082.8 9.00415 1086.97 10.1174 1091.09 11.382L1091.68 9.46978C1087.51 8.19092 1083.29 7.06438 1079.02 6.10677L1078.58 8.05824ZM1103.34 15.6112C1107.37 17.1552 1111.35 18.8333 1115.3 20.6298L1116.13 18.8094C1112.15 16.9973 1108.12 15.3033 1104.06 13.7439L1103.34 15.6112ZM1126.96 26.3221C1130.79 28.3128 1134.58 30.4035 1138.34 32.5789L1139.35 30.8476C1135.56 28.6585 1131.74 26.5534 1127.89 24.5478L1126.96 26.3221ZM1149.46 39.2998C1153.12 41.6023 1156.75 43.9726 1160.36 46.3959L1161.47 44.7363C1157.85 42.3029 1154.21 39.9215 1150.53 37.6071L1149.46 39.2998ZM1171.06 53.7887C1174.6 56.2948 1178.12 58.8388 1181.61 61.4059L1182.8 59.794C1179.29 57.2212 1175.77 54.6702 1172.21 52.1562L1171.06 53.7887ZM1192.06 69.1807C1195.54 71.8001 1199 74.4277 1202.44 77.049L1203.66 75.4576C1200.21 72.8355 1196.75 70.2053 1193.26 67.5826L1192.06 69.1807ZM1212.82 84.9469C1216.3 87.5952 1219.77 90.221 1223.23 92.8076L1224.42 91.2064C1220.97 88.624 1217.51 86.0015 1214.03 83.3546L1212.82 84.9469ZM1233.73 100.557C1237.29 103.141 1240.83 105.665 1244.37 108.111L1245.51 106.466C1241.99 104.03 1238.45 101.515 1234.9 98.9388L1233.73 100.557ZM1255.23 115.366C1258.95 117.756 1262.66 120.039 1266.37 122.194L1267.37 120.465C1263.69 118.327 1260.01 116.06 1256.31 113.684L1255.23 115.366ZM1277.87 128.45C1281.84 130.451 1285.82 132.281 1289.8 133.912L1290.56 132.061C1286.63 130.452 1282.7 128.644 1278.77 126.664L1277.87 128.45ZM1302.16 138.301C1306.41 139.567 1310.67 140.578 1314.94 141.302L1315.28 139.33C1311.09 138.62 1306.91 137.629 1302.74 136.384L1302.16 138.301ZM1328.04 142.587C1332.4 142.695 1336.78 142.476 1341.19 141.899L1340.93 139.916C1336.63 140.48 1332.35 140.693 1328.09 140.587L1328.04 142.587ZM1354.09 139.173C1358.16 137.98 1362.25 136.462 1366.37 134.595L1365.55 132.774C1361.51 134.603 1357.51 136.088 1353.53 137.253L1354.09 139.173ZM1377.96 128.448C1379.82 127.314 1381.69 126.105 1383.57 124.821L1382.43 123.171C1380.59 124.436 1378.75 125.624 1376.92 126.739L1377.96 128.448ZM1383.57 124.821C1385.39 123.573 1387.13 122.164 1388.79 120.624L1387.43 119.157C1385.83 120.638 1384.17 121.984 1382.43 123.171L1383.57 124.821ZM1397.47 110.541C1399.99 106.965 1402.28 103.125 1404.32 99.2013L1402.55 98.276C1400.54 102.136 1398.3 105.897 1395.84 109.387L1397.47 110.541ZM1409.85 87.1971C1411.61 82.8737 1413.11 78.6602 1414.36 74.7953L1412.46 74.1792C1411.22 78.0055 1409.74 82.1721 1408 86.4431L1409.85 87.1971ZM88.5 50.499L87.661 52.3145L88.5 50.499ZM390 200.499L390.217 198.511L390 200.499ZM1383 123.996L1381.87 122.346L1383 123.996ZM1418.5 55.4975L1402.77 72.4033L1425.27 77.5756L1418.5 55.4975ZM1059.5 4.00006L1059.69 2.00891V2.00891L1059.5 4.00006ZM719 101.997L718.049 100.238L718.012 100.258L717.975 100.28L719 101.997ZM-1 101.997C0.694555 103.06 0.694508 103.06 0.694467 103.06C0.69446 103.06 0.694424 103.06 0.694411 103.06C0.694384 103.06 0.694378 103.06 0.694393 103.06C0.694423 103.06 0.694538 103.06 0.694736 103.059C0.695134 103.059 0.695867 103.057 0.696936 103.056C0.699074 103.052 0.702553 103.047 0.707366 103.039C0.716993 103.024 0.731955 103 0.752193 102.968C0.792668 102.905 0.854242 102.808 0.93643 102.681C1.10081 102.426 1.34763 102.048 1.67302 101.559C2.32385 100.581 3.28867 99.1628 4.53661 97.4147L1.28111 95.0906C0.0054189 96.8775 -0.984196 98.3317 -1.65688 99.3424C-1.99325 99.8478 -2.25047 100.242 -2.42468 100.512C-2.51179 100.647 -2.57815 100.751 -2.62329 100.822C-2.64586 100.858 -2.66312 100.885 -2.67502 100.904C-2.68097 100.913 -2.68558 100.921 -2.68883 100.926C-2.69046 100.928 -2.69176 100.93 -2.69271 100.932C-2.69319 100.933 -2.69358 100.933 -2.69389 100.934C-2.69404 100.934 -2.69417 100.934 -2.69428 100.935C-2.69434 100.935 -2.69441 100.935 -2.69444 100.935C-2.6945 100.935 -2.69455 100.935 -1 101.997ZM12.9884 86.4404C15.703 83.1637 18.7991 79.6484 22.2101 76.1291L19.3379 73.3452C15.8435 76.9504 12.6782 80.5449 9.90816 83.8885L12.9884 86.4404ZM32.2522 66.6915C35.74 63.7342 39.4191 60.9504 43.2427 58.4998L41.0843 55.1322C37.0863 57.6945 33.2645 60.5889 29.6653 63.6406L32.2522 66.6915ZM55.2843 52.2345C59.5382 50.5521 63.8782 49.4197 68.2567 49.0033L67.878 45.0212C63.0672 45.4788 58.3588 46.7171 53.8132 48.5148L55.2843 52.2345ZM81.405 50.0492C83.4838 50.6004 85.5707 51.3485 87.661 52.3145L89.339 48.6835C87.0411 47.6216 84.736 46.7942 82.4303 46.1828L81.405 50.0492ZM87.661 52.3145C89.5517 53.1883 91.4863 54.1264 93.4638 55.1251L95.2669 51.5546C93.2524 50.5372 91.276 49.5787 89.339 48.6835L87.661 52.3145ZM104.853 61.254C108.479 63.3101 112.22 65.5184 116.07 67.8593L118.148 64.4414C114.27 62.0835 110.494 59.8541 106.826 57.7745L104.853 61.254ZM127.125 74.7384C130.708 77.0119 134.37 79.3735 138.11 81.8095L140.293 78.4579C136.544 76.0154 132.867 73.645 129.269 71.3611L127.125 74.7384ZM149.002 88.9599C152.573 91.3182 156.205 93.7273 159.896 96.1771L162.108 92.8444C158.417 90.3945 154.782 87.9832 151.207 85.6222L149.002 88.9599ZM170.803 103.411C174.389 105.785 178.025 108.186 181.707 110.603L183.902 107.259C180.225 104.846 176.594 102.448 173.011 100.076L170.803 103.411ZM192.656 117.743C196.286 120.093 199.958 122.45 203.669 124.806L205.813 121.429C202.113 119.08 198.451 116.729 194.83 114.385L192.656 117.743ZM214.756 131.764C218.446 134.051 222.172 136.33 225.93 138.592L227.993 135.165C224.251 132.912 220.54 130.643 216.863 128.364L214.756 131.764ZM237.203 145.264C240.966 147.453 244.76 149.618 248.582 151.754L250.533 148.262C246.732 146.138 242.958 143.984 239.214 141.806L237.203 145.264ZM260.08 158.035C263.931 160.089 267.809 162.107 271.711 164.081L273.516 160.511C269.642 158.552 265.79 156.547 261.963 154.506L260.08 158.035ZM283.483 169.86C287.434 171.74 291.408 173.568 295.403 175.339L297.024 171.681C293.063 169.927 289.122 168.113 285.201 166.248L283.483 169.86ZM307.479 180.479C311.539 182.135 315.618 183.725 319.714 185.242L321.103 181.49C317.049 179.99 313.011 178.416 308.99 176.776L307.479 180.479ZM332.111 189.581C336.282 190.955 340.469 192.247 344.669 193.449L345.769 189.603C341.622 188.416 337.486 187.14 333.363 185.782L332.111 189.581ZM357.39 196.794C361.667 197.818 365.957 198.743 370.257 199.559L371.003 195.629C366.767 194.825 362.54 193.914 358.322 192.904L357.39 196.794ZM383.25 201.684C385.426 201.982 387.604 202.25 389.783 202.487L390.217 198.511C388.074 198.277 385.933 198.014 383.793 197.721L383.25 201.684ZM389.783 202.487C392.004 202.73 394.237 202.939 396.483 203.117L396.798 199.129C394.591 198.955 392.397 198.749 390.217 198.511L389.783 202.487ZM409.968 203.806C414.431 203.914 418.931 203.909 423.46 203.798L423.362 199.799C418.894 199.909 414.46 199.914 410.065 199.807L409.968 203.806ZM436.929 203.167C441.383 202.863 445.86 202.465 450.351 201.981L449.923 198.004C445.481 198.483 441.056 198.876 436.656 199.177L436.929 203.167ZM463.714 200.298C468.138 199.662 472.571 198.95 477.007 198.167L476.311 194.228C471.916 195.004 467.526 195.709 463.145 196.339L463.714 200.298ZM490.222 195.633C494.606 194.727 498.987 193.758 503.357 192.733L502.444 188.838C498.106 189.856 493.76 190.817 489.413 191.716L490.222 195.633ZM516.408 189.499C520.747 188.368 525.071 187.187 529.374 185.961L528.278 182.114C524.003 183.332 519.708 184.505 515.399 185.628L516.408 189.499ZM542.254 182.143C546.55 180.821 550.819 179.459 555.054 178.065L553.803 174.266C549.592 175.652 545.348 177.006 541.077 178.32L542.254 182.143ZM567.775 173.745C572.033 172.256 576.249 170.738 580.416 169.2L579.031 165.447C574.884 166.978 570.69 168.488 566.455 169.969L567.775 173.745ZM592.977 164.444C597.199 162.806 601.362 161.152 605.457 159.49L603.953 155.784C599.876 157.438 595.733 159.084 591.53 160.715L592.977 164.444ZM617.856 154.349C622.048 152.575 626.155 150.8 630.17 149.033L628.558 145.372C624.561 147.131 620.47 148.899 616.297 150.666L617.856 154.349ZM642.419 143.538C646.615 141.621 650.687 139.725 654.623 137.862L652.911 134.247C648.991 136.103 644.936 137.991 640.757 139.9L642.419 143.538ZM666.741 132.026C670.94 129.969 674.94 127.972 678.723 126.055L676.915 122.487C673.147 124.396 669.163 126.385 664.981 128.434L666.741 132.026ZM690.694 119.884C695.075 117.587 699.029 115.469 702.511 113.575L700.6 110.061C697.134 111.946 693.198 114.054 688.836 116.342L690.694 119.884ZM714.285 107.035C716.15 105.975 717.582 105.146 718.549 104.582C719.033 104.3 719.401 104.084 719.648 103.938C719.771 103.865 719.865 103.81 719.928 103.772C719.959 103.754 719.983 103.739 720 103.73C720.008 103.725 720.014 103.721 720.018 103.719C720.02 103.718 720.022 103.717 720.023 103.716C720.023 103.716 720.024 103.715 720.024 103.715C720.024 103.715 720.025 103.715 720.025 103.715C720.025 103.715 720.025 103.715 720.025 103.715C720.025 103.715 720.025 103.715 719 101.997C717.975 100.28 717.975 100.28 717.975 100.28C717.975 100.28 717.975 100.28 717.975 100.28C717.975 100.28 717.975 100.28 717.974 100.28C717.973 100.281 717.972 100.282 717.97 100.283C717.967 100.285 717.961 100.288 717.954 100.292C717.939 100.301 717.917 100.315 717.887 100.332C717.827 100.368 717.736 100.422 717.615 100.493C717.374 100.636 717.012 100.848 716.534 101.127C715.579 101.684 714.159 102.505 712.308 103.558L714.285 107.035ZM719 101.997C719.951 103.757 719.951 103.757 719.951 103.757C719.951 103.757 719.951 103.757 719.951 103.757C719.951 103.757 719.951 103.757 719.951 103.757C719.951 103.757 719.952 103.756 719.952 103.756C719.953 103.756 719.954 103.755 719.956 103.754C719.959 103.752 719.965 103.749 719.972 103.745C719.987 103.737 720.009 103.725 720.039 103.709C720.098 103.678 720.187 103.63 720.306 103.566C720.544 103.439 720.9 103.249 721.37 103C722.31 102.501 723.707 101.766 725.527 100.822L723.686 97.2713C721.854 98.2213 720.447 98.9617 719.497 99.4652C719.022 99.7169 718.661 99.9095 718.418 100.039C718.297 100.104 718.205 100.154 718.144 100.187C718.113 100.203 718.089 100.216 718.074 100.225C718.066 100.229 718.06 100.232 718.056 100.234C718.054 100.235 718.052 100.236 718.051 100.237C718.05 100.237 718.05 100.237 718.05 100.238C718.049 100.238 718.049 100.238 718.049 100.238C718.049 100.238 718.049 100.238 718.049 100.238C718.049 100.238 718.049 100.238 719 101.997ZM736.85 95.0651C740.236 93.3741 744.082 91.4773 748.347 89.4118L746.603 85.8118C742.323 87.8848 738.462 89.7888 735.063 91.4867L736.85 95.0651ZM759.877 83.9072C763.558 82.1745 767.451 80.3653 771.539 78.4948L769.875 74.8575C765.774 76.7342 761.867 78.5495 758.173 80.288L759.877 83.9072ZM783.143 73.2597C786.914 71.5822 790.814 69.8704 794.832 68.134L793.246 64.4622C789.214 66.2044 785.301 67.9219 781.517 69.605L783.143 73.2597ZM806.588 63.1293C810.439 61.5141 814.38 59.886 818.401 58.2522L816.895 54.5465C812.86 56.186 808.906 57.8198 805.041 59.4405L806.588 63.1293ZM830.27 53.5085C834.184 51.9706 838.161 50.4338 842.195 48.9041L840.777 45.1639C836.728 46.6995 832.735 48.2421 828.807 49.7856L830.27 53.5085ZM854.176 44.4459C858.144 42.9977 862.158 41.5614 866.212 40.1422L864.89 36.3669C860.819 37.792 856.789 39.2343 852.805 40.6883L854.176 44.4459ZM878.293 36.0056C882.307 34.6627 886.353 33.3409 890.424 32.0451L889.211 28.2335C885.12 29.5354 881.056 30.8633 877.024 32.2123L878.293 36.0056ZM902.619 28.2685C906.686 27.0442 910.773 25.8499 914.874 24.6904L913.786 20.8413C909.662 22.0072 905.554 23.2077 901.466 24.4383L902.619 28.2685ZM927.19 21.3275C931.307 20.2438 935.433 19.1994 939.562 18.1988L938.62 14.3113C934.465 15.3183 930.313 16.3692 926.172 17.4593L927.19 21.3275ZM951.99 15.3256C956.153 14.4102 960.315 13.5443 964.468 12.7323L963.701 8.80662C959.516 9.62478 955.324 10.4971 951.131 11.4188L951.99 15.3256ZM977.009 10.4448C981.225 9.7324 985.427 9.08131 989.609 8.49645L989.055 4.53501C984.834 5.12535 980.594 5.78229 976.343 6.50067L977.009 10.4448ZM1002.25 6.92757C1006.51 6.46887 1010.74 6.08581 1014.94 5.78379L1014.65 1.79412C1010.4 2.0997 1006.13 2.48707 1001.83 2.95058L1002.25 6.92757ZM1027.64 5.11884C1031.92 4.98224 1036.16 4.93931 1040.35 4.99605L1040.4 0.996413C1036.15 0.938807 1031.85 0.982444 1027.51 1.12087L1027.64 5.11884ZM1053.03 5.49007C1055.14 5.62845 1057.24 5.79522 1059.31 5.99121L1059.69 2.00891C1057.57 1.80923 1055.44 1.63945 1053.29 1.49864L1053.03 5.49007ZM1059.31 5.99121C1061.46 6.19373 1063.59 6.44293 1065.71 6.73689L1066.26 2.77473C1064.08 2.47292 1061.89 2.21697 1059.69 2.00891L1059.31 5.99121ZM1078.36 9.03398C1082.55 9.97403 1086.7 11.0806 1090.8 12.3381L1091.97 8.51366C1087.77 7.22768 1083.53 6.0945 1079.24 5.13103L1078.36 9.03398ZM1102.98 16.5449C1106.99 18.0811 1110.95 19.7513 1114.89 21.54L1116.54 17.8992C1112.54 16.0792 1108.5 14.3773 1104.42 12.8102L1102.98 16.5449ZM1126.5 27.2093C1130.31 29.1925 1134.09 31.276 1137.84 33.4445L1139.85 29.982C1136.05 27.7861 1132.22 25.6736 1128.35 23.6606L1126.5 27.2093ZM1148.93 40.1462C1152.58 42.4427 1156.2 44.8074 1159.8 47.2257L1162.03 43.9065C1158.41 41.4681 1154.75 39.0811 1151.06 36.7608L1148.93 40.1462ZM1170.48 54.605C1174.02 57.1071 1177.53 59.6476 1181.02 62.2119L1183.39 58.9881C1179.88 56.4124 1176.35 53.8579 1172.79 51.3399L1170.48 54.605ZM1191.46 69.9798C1194.94 72.5975 1198.4 75.2238 1201.84 77.8447L1204.26 74.6618C1200.82 72.0394 1197.35 69.4079 1193.86 66.7836L1191.46 69.9798ZM1212.21 85.743C1215.7 88.3921 1219.17 91.0195 1222.63 93.6081L1225.02 90.4058C1221.58 87.8255 1218.11 85.2047 1214.63 82.5584L1212.21 85.743ZM1233.14 101.367C1236.7 103.954 1240.26 106.483 1243.81 108.934L1246.08 105.643C1242.56 103.212 1239.03 100.702 1235.49 98.1295L1233.14 101.367ZM1254.69 116.207C1258.42 118.604 1262.14 120.895 1265.86 123.058L1267.87 119.6C1264.21 117.471 1260.54 115.212 1256.86 112.843L1254.69 116.207ZM1277.42 129.343C1281.42 131.355 1285.41 133.196 1289.42 134.838L1290.94 131.136C1287.04 129.538 1283.13 127.741 1279.22 125.771L1277.42 129.343ZM1301.88 139.259C1306.16 140.536 1310.46 141.556 1314.78 142.288L1315.45 138.344C1311.3 137.642 1307.16 136.66 1303.02 135.426L1301.88 139.259ZM1328.02 143.586C1332.43 143.696 1336.86 143.475 1341.32 142.89L1340.8 138.924C1336.55 139.481 1332.33 139.692 1328.12 139.587L1328.02 143.586ZM1354.37 140.132C1358.49 138.926 1362.63 137.392 1366.79 135.506L1365.14 131.863C1361.14 133.673 1357.18 135.142 1353.25 136.294L1354.37 140.132ZM1378.48 129.302C1380.36 128.158 1382.24 126.94 1384.13 125.646L1381.87 122.346C1380.04 123.601 1378.21 124.78 1376.4 125.885L1378.48 129.302ZM1384.13 125.646C1386 124.367 1387.77 122.927 1389.47 121.357L1386.75 118.424C1385.18 119.875 1383.56 121.19 1381.87 122.346L1384.13 125.646ZM1398.29 111.118C1400.84 107.499 1403.15 103.619 1405.21 99.664L1401.66 97.8133C1399.67 101.641 1397.45 105.363 1395.02 108.81L1398.29 111.118ZM1410.78 87.5741C1412.55 83.2245 1414.05 78.9875 1415.31 75.1034L1411.5 73.8711C1410.27 77.6781 1408.8 81.8214 1407.07 86.066L1410.78 87.5741Z" fill="#656565"/>
</svg>
