<svg width="33" height="33" viewBox="0 0 33 33" fill="none" xmlns="http://www.w3.org/2000/svg">
<path d="M16.1763 22.3931C16.3274 22.4795 16.4984 22.5249 16.6725 22.5249C16.8466 22.5249 17.0176 22.4795 17.1688 22.3931C17.475 22.2168 24.6688 18.0181 24.6688 10.5243C24.6059 8.44596 23.7363 6.47371 22.2443 5.0255C20.7522 3.57729 18.7549 2.76693 16.6756 2.76611C14.5962 2.7653 12.5983 3.57411 11.1051 5.02115C9.61187 6.46819 8.74074 8.43976 8.67627 10.5181C8.67627 18.0181 15.8738 22.2106 16.1763 22.3931ZM16.6763 7.51809C17.2696 7.51809 17.8496 7.69404 18.343 8.02368C18.8363 8.35332 19.2208 8.82186 19.4479 9.37004C19.675 9.91822 19.7344 10.5214 19.6186 11.1034C19.5029 11.6853 19.2171 12.2199 18.7976 12.6394C18.378 13.059 17.8435 13.3447 17.2615 13.4604C16.6796 13.5762 16.0764 13.5168 15.5282 13.2897C14.98 13.0627 14.5115 12.6781 14.1819 12.1848C13.8522 11.6915 13.6763 11.1114 13.6763 10.5181C13.6763 9.72244 13.9923 8.95938 14.5549 8.39677C15.1176 7.83416 15.8806 7.51809 16.6763 7.51809ZM30.6763 23.5181C30.6763 27.4156 23.4625 29.5181 16.6763 29.5181C9.89002 29.5181 2.67627 27.4156 2.67627 23.5181C2.67627 21.6943 4.32877 20.0793 7.33002 18.9718C7.57614 18.8905 7.84422 18.908 8.07774 19.0205C8.31126 19.133 8.49197 19.3318 8.58178 19.5749C8.67158 19.8181 8.66346 20.0866 8.55913 20.3239C8.4548 20.5611 8.26241 20.7486 8.02252 20.8468C5.95877 21.6106 4.67627 22.6331 4.67627 23.5181C4.67627 25.1881 9.24127 27.5181 16.6763 27.5181C24.1113 27.5181 28.6763 25.1881 28.6763 23.5181C28.6763 22.6331 27.3938 21.6106 25.33 20.8481C25.0901 20.7499 24.8977 20.5624 24.7934 20.3251C24.6891 20.0878 24.681 19.8193 24.7708 19.5762C24.8606 19.333 25.0413 19.1342 25.2748 19.0217C25.5083 18.9092 25.7764 18.8918 26.0225 18.9731C29.0238 20.0793 30.6763 21.6943 30.6763 23.5181Z" fill="url(#paint0_linear_1503_2)"/>
<defs>
<linearGradient id="paint0_linear_1503_2" x1="16.6763" y1="2.76611" x2="16.6763" y2="29.5181" gradientUnits="userSpaceOnUse">
<stop stop-color="#018AD8"/>
<stop offset="1" stop-color="#004972"/>
</linearGradient>
</defs>
</svg>
