<svg width="49" height="38" viewBox="0 0 49 38" fill="none" xmlns="http://www.w3.org/2000/svg">
<path d="M44.0166 2.375H4.1166C3.67568 2.375 3.25282 2.55016 2.94104 2.86194C2.62926 3.17371 2.4541 3.59658 2.4541 4.0375V32.3C2.4541 33.1818 2.80441 34.0276 3.42797 34.6511C4.05153 35.2747 4.89726 35.625 5.7791 35.625H42.3541C43.236 35.625 44.0817 35.2747 44.7052 34.6511C45.3288 34.0276 45.6791 33.1818 45.6791 32.3V4.0375C45.6791 3.59658 45.504 3.17371 45.1922 2.86194C44.8804 2.55016 44.4575 2.375 44.0166 2.375ZM24.0666 20.0702L8.3913 5.7H39.7419L24.0666 20.0702ZM17.9798 19L5.7791 30.1824V7.81761L17.9798 19ZM20.4403 21.2548L22.934 23.5511C23.2407 23.8327 23.6419 23.9889 24.0583 23.9889C24.4746 23.9889 24.8758 23.8327 25.1826 23.5511L27.6763 21.2548L39.7294 32.3H8.3913L20.4403 21.2548ZM30.1534 19L42.3541 7.81553V30.1845L30.1534 19Z" fill="#018AD8"/>
</svg>
