<svg width="75" height="75" viewBox="0 0 75 75" fill="none" xmlns="http://www.w3.org/2000/svg">
<circle cx="37.5" cy="37.5" r="37.5" fill="#00BD13" fill-opacity="0.26"/>
<path d="M59.3476 32.1211C59.1863 31.6088 58.8754 31.1565 58.455 30.8224C58.0345 30.4883 57.5237 30.2876 56.9882 30.2461L45.3749 29.2422C45.3047 29.2353 45.2377 29.2095 45.1809 29.1675C45.1242 29.1256 45.0799 29.069 45.0527 29.0039L40.5156 18.1914C40.3054 17.6982 39.955 17.2776 39.5077 16.9819C39.0604 16.6863 38.5361 16.5287 37.9999 16.5287C37.4638 16.5287 36.9395 16.6863 36.4922 16.9819C36.0449 17.2776 35.6944 17.6982 35.4843 18.1914L30.9472 29.0039C30.92 29.069 30.8757 29.1256 30.819 29.1675C30.7622 29.2095 30.6952 29.2353 30.6249 29.2422L19.0117 30.2461C18.4762 30.2876 17.9654 30.4883 17.5449 30.8224C17.1245 31.1565 16.8136 31.6088 16.6523 32.1211C16.4815 32.6341 16.4665 33.1862 16.6094 33.7077C16.7523 34.2291 17.0466 34.6965 17.455 35.0508L26.2656 42.7363C26.3195 42.7843 26.3596 42.8458 26.3816 42.9145C26.4036 42.9832 26.4067 43.0566 26.3906 43.127L23.7421 54.5547C23.6187 55.0808 23.6539 55.6318 23.8434 56.1379C24.0328 56.644 24.368 57.0827 24.8066 57.3984C25.2384 57.717 25.7558 57.8989 26.2919 57.9204C26.8281 57.942 27.3584 57.8024 27.8144 57.5195L37.7968 51.4648C37.8555 51.4285 37.9231 51.4093 37.9921 51.4093C38.0611 51.4093 38.1288 51.4285 38.1874 51.4648L48.1699 57.5195C48.6306 57.8016 49.1646 57.9409 49.7044 57.9198C50.2442 57.8987 50.7657 57.7182 51.203 57.401C51.6403 57.0838 51.9739 56.6442 52.1616 56.1376C52.3493 55.6311 52.3828 55.0803 52.2578 54.5547L49.6171 43.1231C49.601 43.0527 49.6041 42.9793 49.6261 42.9106C49.6481 42.8419 49.6882 42.7803 49.7421 42.7324L58.5527 35.0469C58.959 34.692 59.2513 34.2249 59.3928 33.7043C59.5342 33.1836 59.5185 32.6328 59.3476 32.1211ZM57.0039 33.2773L48.1933 40.9629C47.8179 41.2895 47.5387 41.7124 47.3859 42.186C47.2331 42.6596 47.2124 43.1659 47.3261 43.6504L49.9667 55.082C49.9863 55.1588 49.982 55.2398 49.9544 55.3141C49.9268 55.3884 49.8773 55.4525 49.8124 55.4981C49.7537 55.5451 49.6815 55.5721 49.6063 55.5753C49.5312 55.5785 49.457 55.5576 49.3945 55.5156L39.4121 49.4609C38.9865 49.2023 38.498 49.0655 37.9999 49.0655C37.5019 49.0655 37.0134 49.2023 36.5878 49.4609L26.6054 55.5156C26.5429 55.5576 26.4687 55.5785 26.3936 55.5753C26.3184 55.5721 26.2462 55.5451 26.1874 55.4981C26.1226 55.4525 26.0731 55.3884 26.0455 55.3141C26.0179 55.2398 26.0136 55.1588 26.0332 55.082L28.6738 43.6504C28.7875 43.1659 28.7668 42.6596 28.614 42.186C28.4612 41.7124 28.182 41.2895 27.8066 40.9629L18.996 33.2773C18.9358 33.2261 18.8925 33.1578 18.8719 33.0814C18.8514 33.005 18.8544 32.9242 18.8808 32.8496C18.9005 32.7753 18.9433 32.7092 19.003 32.6608C19.0626 32.6124 19.1361 32.5841 19.2128 32.5801L30.8281 31.5762C31.3253 31.5338 31.8015 31.3562 32.205 31.0625C32.6085 30.7688 32.9239 30.3703 33.1171 29.9102L37.6542 19.0977C37.6858 19.0306 37.7358 18.9738 37.7984 18.9341C37.861 18.8943 37.9336 18.8732 38.0078 18.8732C38.0819 18.8732 38.1545 18.8943 38.2171 18.9341C38.2797 18.9738 38.3297 19.0306 38.3613 19.0977L42.8828 29.9102C43.0753 30.3692 43.3896 30.767 43.7916 31.0606C44.1936 31.3542 44.6681 31.5324 45.164 31.5762L56.7792 32.5801C56.856 32.5841 56.9295 32.6124 56.9891 32.6608C57.0488 32.7092 57.0916 32.7753 57.1113 32.8496C57.1385 32.9234 57.1429 33.0038 57.1237 33.0801C57.1045 33.1564 57.0628 33.2252 57.0039 33.2773Z" fill="white"/>
</svg>
