<svg width="75" height="75" viewBox="0 0 75 75" fill="none" xmlns="http://www.w3.org/2000/svg">
<circle cx="37.5" cy="37.5" r="37.5" fill="#FF5AA9" fill-opacity="0.39"/>
<path d="M42.2966 56.75C42.2966 57.0608 42.1732 57.3589 41.9534 57.5786C41.7336 57.7984 41.4356 57.9219 41.1248 57.9219H34.8748C34.564 57.9219 34.2659 57.7984 34.0461 57.5786C33.8264 57.3589 33.7029 57.0608 33.7029 56.75C33.7029 56.4392 33.8264 56.1411 34.0461 55.9213C34.2659 55.7016 34.564 55.5781 34.8748 55.5781H41.1248C41.4356 55.5781 41.7336 55.7016 41.9534 55.9213C42.1732 56.1411 42.2966 56.4392 42.2966 56.75ZM37.9998 34.4844C38.3861 34.4844 38.7637 34.3698 39.0849 34.1552C39.4061 33.9406 39.6564 33.6356 39.8042 33.2787C39.9521 32.9218 39.9907 32.5291 39.9154 32.1502C39.84 31.7713 39.654 31.4233 39.3808 31.1502C39.1077 30.877 38.7597 30.691 38.3808 30.6156C38.0019 30.5403 37.6092 30.579 37.2523 30.7268C36.8955 30.8746 36.5904 31.125 36.3758 31.4461C36.1612 31.7673 36.0466 32.1449 36.0466 32.5312C36.0466 33.0492 36.2524 33.546 36.6187 33.9123C36.985 34.2786 37.4818 34.4844 37.9998 34.4844ZM56.2947 43.3515L53.8806 54.2109C53.781 54.6625 53.5684 55.0814 53.2629 55.4285C52.9573 55.7756 52.5687 56.0395 52.1335 56.1956C51.6982 56.3517 51.2304 56.3948 50.7739 56.321C50.3174 56.2472 49.8871 56.0588 49.5232 55.7734L44.0955 51.6719H31.9099L26.4763 55.7734C26.1124 56.0602 25.6816 56.2497 25.2244 56.3243C24.7671 56.3989 24.2984 56.3561 23.8622 56.1999C23.426 56.0437 23.0367 55.7793 22.7307 55.4314C22.4248 55.0834 22.2122 54.6635 22.1131 54.2109L19.7049 43.3515C19.615 42.9434 19.6195 42.5201 19.718 42.1139C19.8165 41.7078 20.0064 41.3295 20.2732 41.0078L25.9373 34.2187C26.1125 31.7571 26.6713 29.3379 27.5935 27.0488C30.0779 20.8223 34.531 16.916 36.3298 15.5254C36.8093 15.1535 37.3989 14.9517 38.0056 14.9517C38.6124 14.9517 39.2019 15.1535 39.6814 15.5254C41.4802 16.916 45.9314 20.8223 48.4177 27.0488C49.34 29.3379 49.8988 31.7571 50.074 34.2187L55.7381 41.0078C56.0029 41.3305 56.1906 41.7093 56.2871 42.1154C56.3835 42.5215 56.3861 42.9443 56.2947 43.3515ZM32.1912 49.3281H43.8084C48.0916 41.8164 48.9099 34.6152 46.2361 27.918C43.9021 22.0586 39.5271 18.373 38.242 17.3711C38.173 17.3166 38.0877 17.2869 37.9998 17.2869C37.9119 17.2869 37.8265 17.3166 37.7576 17.3711C36.4724 18.3652 32.0935 22.0586 29.7634 27.918C27.0896 34.6152 27.908 41.8164 32.1912 49.3281ZM29.992 50.1875C27.6482 45.9902 26.3006 41.8672 25.9646 37.8457L22.074 42.5078C22.0357 42.5535 22.0085 42.6074 21.9942 42.6653C21.98 42.7232 21.9792 42.7835 21.992 42.8418L24.408 53.709C24.4223 53.7737 24.4529 53.8337 24.4969 53.8833C24.5409 53.933 24.5967 53.9706 24.6593 53.9927C24.7218 54.0148 24.7889 54.0206 24.8543 54.0095C24.9197 53.9985 24.9812 53.971 25.033 53.9297L25.0584 53.9082L29.992 50.1875ZM53.9314 42.5078L50.0466 37.8457C49.7107 41.8672 48.367 45.9902 46.0193 50.1875L50.947 53.8984L50.9724 53.9199C51.0243 53.9613 51.0858 53.9888 51.1511 53.9998C51.2165 54.0108 51.2836 54.005 51.3461 53.9829C51.4087 53.9608 51.4645 53.9232 51.5085 53.8736C51.5525 53.8239 51.5831 53.7639 51.5974 53.6992L54.0154 42.8418C54.0271 42.783 54.025 42.7222 54.0095 42.6643C53.9939 42.6064 53.9652 42.5528 53.9256 42.5078H53.9314Z" fill="white"/>
</svg>
