<svg width="100" height="100" viewBox="0 0 100 100" fill="none" xmlns="http://www.w3.org/2000/svg">
<circle cx="50" cy="50" r="50" fill="#FF5AA9" fill-opacity="0.5"/>
<path d="M78.3807 73.3907L65.1554 60.168C68.9887 55.566 70.9001 49.6633 70.4921 43.6878C70.0842 37.7124 67.3882 32.1243 62.965 28.0859C58.5419 24.0476 52.7321 21.8699 46.7443 22.006C40.7565 22.1421 35.0517 24.5814 30.8165 28.8165C26.5814 33.0517 24.1421 38.7565 24.006 44.7443C23.8699 50.7321 26.0476 56.5419 30.0859 60.965C34.1243 65.3882 39.7124 68.0842 45.6878 68.4921C51.6633 68.9001 57.566 66.9887 62.168 63.1554L75.3907 76.3807C75.587 76.5771 75.8201 76.7328 76.0766 76.8391C76.3331 76.9453 76.6081 77 76.8857 77C77.1634 77 77.4383 76.9453 77.6948 76.8391C77.9513 76.7328 78.1844 76.5771 78.3807 76.3807C78.5771 76.1844 78.7328 75.9513 78.8391 75.6948C78.9453 75.4383 79 75.1634 79 74.8857C79 74.6081 78.9453 74.3331 78.8391 74.0766C78.7328 73.8201 78.5771 73.587 78.3807 73.3907ZM28.2846 45.3024C28.2846 41.541 29.3999 37.8641 31.4897 34.7367C33.5794 31.6092 36.5495 29.1716 40.0246 27.7322C43.4997 26.2928 47.3235 25.9162 51.0126 26.65C54.7017 27.3838 58.0904 29.1951 60.7501 31.8548C63.4098 34.5145 65.221 37.9031 65.9548 41.5922C66.6886 45.2813 66.312 49.1052 64.8726 52.5802C63.4332 56.0553 60.9956 59.0255 57.8682 61.1152C54.7407 63.2049 51.0638 64.3203 47.3024 64.3203C42.2603 64.3147 37.4263 62.3092 33.8609 58.7439C30.2956 55.1786 28.2902 50.3445 28.2846 45.3024Z" fill="white"/>
</svg>
